<svg width="20" height="43" viewBox="0 0 20 43" fill="none" xmlns="http://www.w3.org/2000/svg">
<path d="M17.3474 26.6278V33.4802V33.7929C17.2171 37.0757 13.856 40.0199 9.99997 40.0199C6.14389 40.0199 2.78285 37.1799 2.65257 33.6626V25.5857L0.463989 23.5273V33.6886V33.871C0.568208 38.3785 4.78905 42.0261 9.99997 42.0261C15.2109 42.0261 19.4578 38.5608 19.5359 34.0273V33.7147V26.6799H17.3474V26.6278Z" fill="#4F98E4"/>
<path d="M4.81511 32.9069C4.81511 35.7729 7.16002 38.1178 10.026 38.1178C12.892 38.1178 15.2369 35.7729 15.2369 32.9069V27.5917H13.0484V32.9069C13.0484 34.5744 11.6935 35.9292 10.026 35.9292C8.35853 35.9292 6.97764 34.5744 6.97764 32.9069V24.5694L0.463989 18.3684V21.3647L4.81511 25.5074V32.9069Z" fill="#4F98E4"/>
<path d="M19.5099 28.9206V25.8983L6.92553 13.9132V9.09305C6.92553 7.42556 8.28037 6.07072 9.94786 6.07072C11.6154 6.07072 12.9702 7.42556 12.9702 9.09305V17.4305L19.4838 23.6315V20.6092L15.1588 16.4926V9.09305C15.1588 6.22705 12.8139 3.88213 9.94786 3.88213C7.08186 3.88213 4.73694 6.22705 4.73694 9.09305V14.8511L17.3213 26.8362V28.9727L2.62652 14.9032V8.51985V8.2072C2.75679 4.89826 6.11784 1.98015 9.99997 1.98015C13.856 1.98015 17.2171 4.8201 17.3474 8.33747V16.4144L19.5359 18.4727V8.31141V8.12903C19.4057 3.64764 15.1848 0 9.99997 0C4.78905 0 0.542153 3.6737 0.463989 8.2072V8.33747V15.8672L19.5099 34.0273V31.2395V31.1352V31.1092V28.9206Z" fill="#2F2F69"/>
</svg>
