<svg width="176" height="71" viewBox="0 0 176 71" fill="none" xmlns="http://www.w3.org/2000/svg">
<g clip-path="url(#clip0_101471_2267)">
<path d="M28.5263 45.0136V56.5974V57.1259C28.3062 62.6755 22.6273 67.6526 16.1121 67.6526C9.5968 67.6526 3.91796 62.8517 3.69785 56.9057V43.2518L0 39.7723V56.9497V57.258C0.176088 64.8778 7.30765 71.044 16.1121 71.044C24.9165 71.044 32.092 65.1861 32.2241 57.5223V56.9938V45.1017H28.5263V45.0136Z" fill="#4F98E4"/>
<path d="M7.35168 55.6284C7.35168 60.4734 11.3137 64.4374 16.1561 64.4374C20.9985 64.4374 24.9605 60.4734 24.9605 55.6284V46.6433H21.2626V55.6284C21.2626 58.4473 18.9735 60.7376 16.1561 60.7376C13.3387 60.7376 11.0055 58.4473 11.0055 55.6284V41.5341L0 31.0515V36.1167L7.35168 43.1198V55.6284Z" fill="#4F98E4"/>
<path d="M32.1801 48.8896V43.7804L10.9175 23.5199V15.3716C10.9175 12.5527 13.2066 10.2624 16.024 10.2624C18.8414 10.2624 21.1306 12.5527 21.1306 15.3716V29.4659L32.1361 39.9485V34.8393L24.8284 27.8803V15.3716C24.8284 10.5267 20.8664 6.56266 16.024 6.56266C11.1816 6.56266 7.21961 10.5267 7.21961 15.3716V25.1055L28.4822 45.366V48.9777L3.65383 25.1936V14.4026V13.8741C3.87394 8.2804 9.55278 3.34739 16.1121 3.34739C22.6273 3.34739 28.3062 8.14826 28.5263 14.0943V27.7481L32.2241 31.2277V14.0502V13.7419C32.004 6.16625 24.8724 0 16.1121 0C7.30765 0 0.132066 6.2103 0 13.8741V14.0943V26.8232L32.1801 57.5223V52.8096V52.6334V52.5893V48.8896Z" fill="#2F2F69"/>
<path d="M61.895 14.4907H64.7564C67.1776 14.4907 69.2907 15.5037 70.7874 17.0893C72.1961 18.5428 73.0325 20.5689 73.0325 22.8151C73.0325 25.1936 72.02 27.3517 70.4792 28.8493C68.9385 30.2587 66.9575 31.1396 64.7564 31.1396H61.895V33.562H58.2411V31.1396H55.3797C53.0025 31.1396 50.8895 30.2146 49.3927 28.6731C47.896 27.1756 47.0595 25.1055 47.0595 22.8151C47.0595 20.701 47.8079 18.763 48.9965 17.3536C50.5373 15.6359 52.7824 14.4907 55.3357 14.4907H58.1971V12.3766H61.8509V14.4907H61.895ZM55.6438 27.7481H58.2411V17.8821H55.6438C54.1471 17.8821 52.6944 18.4988 51.7699 19.5999C51.1976 20.4367 50.6693 21.6259 50.6693 22.8151C50.6693 24.2246 51.1976 25.3697 52.034 26.2066C52.9585 27.1756 54.2791 27.7481 55.6438 27.7481ZM61.895 17.8821V27.7481H64.4923C65.8129 27.7481 67.0896 27.2637 68.014 26.3828C68.8945 25.5019 69.4227 24.3127 69.4227 22.8151C69.4227 21.4057 68.8504 20.1284 68.014 19.2916C67.0896 18.3666 65.8129 17.8821 64.4923 17.8821H61.895V17.8821Z" fill="#2F2F69"/>
<path d="M89.5848 12.7729L98.8294 33.6061H94.8234L93.1065 29.7742H82.013L80.2961 33.6061H76.3782L85.6228 12.7729H89.5848ZM83.4217 26.4268H91.6978L87.6918 16.5167H87.2956L83.4217 26.4268Z" fill="#2F2F69"/>
<path d="M119.168 25.7661C117.715 27.1756 115.734 27.9684 113.577 27.9684H107.238V33.6501H103.452V12.7729H113.577C115.998 12.7729 118.243 13.83 119.696 15.5478C120.752 16.8691 121.413 18.4547 121.413 20.3927C121.413 22.5068 120.532 24.4448 119.168 25.7661ZM116.658 23.2556C117.231 22.4628 117.715 21.3617 117.715 20.3927C117.715 19.2916 117.363 18.2785 116.658 17.5298C115.91 16.6489 114.765 16.1203 113.445 16.1203H107.282V24.5329H113.753C114.853 24.5769 115.998 24.0043 116.658 23.2556Z" fill="#2F2F69"/>
<path d="M130.305 12.7729L137.701 23.0794L144.876 12.7729H148.838V33.6061H145.185V18.3226H145.053L138.185 28.0124H136.864L129.953 18.3226H129.777V33.6061H126.299V12.7729H130.305Z" fill="#2F2F69"/>
<path d="M166.755 12.7729L176 33.6061H171.994L170.277 29.7742H159.184L157.467 33.6061H153.549L162.793 12.7729H166.755ZM160.592 26.4268H168.868L164.862 16.5167H164.466L160.592 26.4268Z" fill="#2F2F69"/>
<path d="M52.7824 55.6725C54.1471 57.0819 56.04 57.8747 58.065 57.8747C60.4862 57.8747 62.4232 56.9498 64.2721 55.3201L66.4732 57.7866C64.008 60.165 61.5428 61.2221 58.021 61.2221C54.8074 61.2221 52.1661 60.0329 50.1851 58.139C48.1601 56.1569 47.0155 53.4702 47.0155 50.3871C47.0155 47.348 48.1601 44.7053 50.097 42.7233C51.99 40.8294 54.7634 39.6402 58.021 39.6402C61.5428 39.6402 64.008 40.6973 66.4732 42.9876L64.2721 45.4981C62.4232 43.8244 60.4862 42.9435 58.065 42.9435C56.04 42.9435 54.1911 43.6923 52.8704 45.0136C51.5938 46.2909 50.7574 48.2289 50.7574 50.3431C50.8014 52.6774 51.5938 54.4833 52.7824 55.6725Z" fill="#4F98E4"/>
<path d="M88.7924 42.7233C90.7734 44.7494 91.8739 47.4801 91.8739 50.4752C91.8739 53.4702 90.8174 56.1129 88.9245 58.0509C86.9435 60.0769 84.2141 61.2661 80.9125 61.2661C77.6108 61.2661 74.7054 59.8567 72.7684 57.7866C71.0515 55.8927 69.907 53.25 69.907 50.4752C69.907 47.6123 70.9635 44.9696 72.8124 42.9876C74.7494 40.9175 77.6108 39.6402 80.9125 39.6402C84.1261 39.6842 86.8994 40.8294 88.7924 42.7233ZM75.5858 55.6725C76.8624 57.0819 78.7994 57.9628 80.9125 57.9628C82.9815 57.9628 84.9185 57.1259 86.2391 55.7165C87.4277 54.4392 88.1761 52.6334 88.1761 50.5192C88.1761 48.361 87.3837 46.5112 86.1951 45.2779C84.8304 43.8685 82.9375 43.0757 80.9125 43.0757C78.8434 43.0757 76.9065 43.9125 75.5858 45.322C74.3532 46.5993 73.6048 48.4051 73.6048 50.5192C73.6488 52.5453 74.3972 54.3511 75.5858 55.6725Z" fill="#4F98E4"/>
<path d="M110.891 41.7984H113.753C116.174 41.7984 118.287 42.8114 119.784 44.397C121.193 45.8505 122.029 47.8766 122.029 50.1229C122.029 52.5013 121.017 54.6594 119.476 56.157C117.935 57.5664 115.954 58.4473 113.753 58.4473H110.891V60.8697H107.238V58.4473H104.376C101.999 58.4473 99.8859 57.5224 98.3892 55.9808C96.8925 54.4833 96.056 52.4132 96.056 50.1229C96.056 48.0087 96.8044 46.0707 97.993 44.6613C99.5338 42.9436 101.779 41.7984 104.332 41.7984H107.194V39.6843H110.847V41.7984H110.891ZM104.64 55.0559H107.238V45.1898H104.64C103.144 45.1898 101.691 45.8065 100.766 46.9076C100.194 47.7444 99.6658 48.9336 99.6658 50.1229C99.6658 51.5323 100.194 52.6774 101.031 53.5143C101.955 54.4833 103.232 55.0559 104.64 55.0559ZM110.891 45.1898V55.0559H113.489C114.809 55.0559 116.086 54.5714 117.011 53.6905C117.891 52.8096 118.419 51.6204 118.419 50.1229C118.419 48.7134 117.847 47.4361 117.011 46.5993C116.086 45.6743 114.809 45.1898 113.489 45.1898H110.891V45.1898Z" fill="#4F98E4"/>
<path d="M124.626 40.0806H143.776V43.384H136.028V60.9138H132.374V43.384H124.626V40.0806Z" fill="#4F98E4"/>
</g>
<defs>
<clipPath id="clip0_101471_2267">
<rect width="176" height="71" fill="white"/>
</clipPath>
</defs>
</svg>
